<?xml version="1.0" standalone="no"?><!DOCTYPE svg PUBLIC "-//W3C//DTD SVG 1.1//EN" "http://www.w3.org/Graphics/SVG/1.1/DTD/svg11.dtd"><svg t="1568283409318" class="icon" viewBox="0 0 1024 1024" version="1.1" xmlns="http://www.w3.org/2000/svg" p-id="2507" xmlns:xlink="http://www.w3.org/1999/xlink" width="200" height="200"><defs><style type="text/css"></style></defs><path d="M714.285714 546.857143l146.857143-142.857143-203.428571-29.714286-37.714286-5.714285-17.142857-34.285715-90.857143-184v550.285715l33.714286 17.714285 181.714285 96-34.285714-202.857143-6.857143-37.714285z m258.285715-149.714286l-207.428572 202.285714 49.142857 285.714286q2.857143 18.857143-3.428571 29.428572t-19.428572 10.571428q-9.714286 0-22.857142-6.857143l-256.571429-134.857143-256.571429 134.857143q-13.142857 6.857143-22.857142 6.857143-13.142857 0-19.428572-10.571428t-3.428571-29.428572l49.142857-285.714286L50.857143 397.142857q-18.285714-18.285714-13.142857-34t30.857143-19.714286l286.857142-41.714285L484 41.714286q11.428571-23.428571 28-23.428572 16 0 28 23.428572l128.571429 260 286.857142 41.714285q25.714286 4 30.857143 19.714286t-13.714285 34z" p-id="2508"></path></svg>